# File produced by Open Asset Import Library (http://www.assimp.sf.net)
# (assimp v5.0.639693989)

mtllib rniju61auqo2.mtl

# 8 vertex positions
v  2.4999998 2.5 -2.5
v  -2.4999993 2.500001 -2.5
v  -2.5000005 -2.4999995 -2.5
v  2.4999998 -2.5 -2.5
v  2.5000007 2.4999988 2.5
v  2.4999983 -2.5000014 2.5
v  -2.5000012 -2.499999 2.5
v  -2.5 2.5 2.5

# 24 UV coordinates
vt 0.33333328 0.33333337 0
vt 0.33333337 0.66666657 0
vt 6.3578277e-08 0.66666669 0
vt 0 0.3333334 0
vt 1 0 0
vt 0.99999994 0.33333325 0
vt 0.66666669 0.33333322 0
vt 0.66666669 4.7683702e-08 0
vt 0.33333334 0.33333337 0
vt 3.1789138e-08 0.33333331 0
vt 0 0 0
vt 0.33333334 7.9472841e-08 0
vt 0.66666663 0 0
vt 0.66666663 0.33333328 0
vt 0.33333334 0.33333334 0
vt 0.33333334 9.5367405e-08 0
vt 0.99999994 0.33333334 0
vt 0.99999994 0.66666663 0
vt 0.66666669 0.66666651 0
vt 0.66666669 0.33333334 0
vt 3.1789138e-08 0.99999994 0
vt 0 0.66666669 0
vt 0.33333325 0.66666669 0
vt 0.33333328 0.99999988 0

# 8 vertex normals
vn -0.57734919 -0.57734919 0.57734919
vn 0.57734919 -0.57734919 0.57734919
vn 0.57734919 0.57734919 0.57734919
vn -0.57734919 0.57734919 0.57734919
vn -0.57734919 -0.57734919 -0.57734919
vn -0.57734919 0.57734919 -0.57734919
vn 0.57734919 0.57734919 -0.57734919
vn 0.57734919 -0.57734919 -0.57734919

# Mesh 'Cube' with 6 faces
g Cube
usemtl Material
f  1/1/1 2/2/2 3/3/3 4/4/4
f  5/5/5 6/6/6 7/7/7 8/8/8
f  1/9/1 4/10/4 6/11/6 5/12/5
f  4/13/4 3/14/3 7/15/7 6/16/6
f  3/17/3 2/18/2 8/19/8 7/20/7
f  5/21/5 8/22/8 2/23/2 1/24/1

